<svg xmlns="http://www.w3.org/2000/svg" viewBox="0 0 640 640" xml:space="preserve"><path d="M273.983 322.983c-37.35 37.388-74.456 74.521-111.549 111.668-3.65 3.655-7.12 7.492-10.854 11.057-3.638 3.474-8.223 3.674-11.168.795-3.395-3.319-3.25-7.455.66-11.447 6.646-6.786 13.43-13.436 20.102-20.199 1.48-1.501 3.336-2.749 4.046-4.868-.905-1.773-2.715-1.977-4.146-2.708-16.47-8.412-25.37-21.672-25.395-40.325-.077-60-.04-120-.022-180 .008-25.722 18.724-44.3 44.566-44.309 13-.005 26-.055 39 .027 2.518.015 4.303-.666 6.033-2.649 11.828-13.56 23.764-27.028 35.734-40.463 8.149-9.146 17.998-14.21 30.679-14.012 22.828.357 45.667.265 68.498.04 13.31-.132 23.435 5.688 31.268 15.82 9.478 12.257 18.579 24.806 27.847 37.226 3.874 5.191 11.678 5.866 16.332 1.247 12.184-12.09 24.29-24.261 36.428-36.4 2.02-2.02 4.046-3.931 7.226-3.948 2.946-.014 5.176 1.056 6.625 3.631 1.428 2.538 1.536 5.15-.165 7.543-1.148 1.615-2.603 3.027-4.012 4.438-69.155 69.202-138.32 138.393-207.733 207.836M250.5 157.34c-23.497.003-46.995-.108-70.49.048-16.87.112-29.562 12.577-29.601 29.425-.14 60.158-.115 120.317-.003 180.476.024 13.058 8.888 24.372 21.234 27.756 3.833 1.05 7.652 1.83 11.124-1.678 20.978-21.202 42.006-42.356 63.208-63.334 3.216-3.181 3.343-5.504 1.225-9.362-9.806-17.866-13.126-37.03-8.907-56.985 12.42-58.747 73.182-87.052 126.283-58.951 3.367 1.782 5.18 1.225 7.644-1.277 13.68-13.891 27.526-27.617 41.277-41.437 1.206-1.211 2.846-2.219 3.227-4.68H250.5m34.999-14.693h116.508l.507-1.356c-9.386-11.608-16.876-24.68-27.553-35.264-4.134-4.097-9.545-5.782-15.51-5.76-22.474.08-44.95.127-67.424-.025-7.94-.054-14.147 3.124-19.28 8.839-5.894 6.56-11.729 13.174-17.563 19.788-3.761 4.263-7.475 8.568-12.015 13.778h42.33M267.18 308.63l89.976-90.07c-20.154-13.926-60.524-15.275-86.574 12.891-24.018 25.969-22.725 64.498-8.258 83.394 1.518-1.998 2.93-3.856 4.856-6.215zM276 411.28c-16.828.006-33.156.022-49.484-.003-1.821-.002-3.726.062-5.446-.422-3.597-1.012-5.548-3.527-5.506-7.374.039-3.637 1.898-5.874 5.332-6.95 2.447-.767 4.95-.575 7.44-.575 78.806-.006 157.613.004 236.42-.009 4.652 0 9.33.188 13.828-1.476a29.185 29.185 0 0 0 19.041-27.377c.054-60.146.06-120.293 0-180.44-.016-15.619-11.077-27.35-27.208-29.25-6.078-.716-9.029-3.436-8.677-8 .352-4.574 3.637-6.817 9.867-6.737 20.846.269 40.607 19.638 40.66 40.517.158 62.48.184 124.959.001 187.438-.064 22.04-20.566 40.623-44.332 40.647-63.812.063-127.624.015-191.936.012z"/><path d="M395.622 273.42c-1.43-10.784-4.367-20.58-9.748-29.603-3.35-5.617-2.84-9.816 1.139-12.295 4.221-2.63 8.452-.953 11.83 4.69 26.536 44.317 7.691 102.827-39.899 122.95-27.505 11.631-54.25 9.191-79.835-6.096-1.979-1.183-3.922-2.608-5.46-4.303-2.562-2.82-2.59-6.12-.323-9.147 2.131-2.847 5.164-3.668 8.462-2.37 1.992.783 3.832 2.006 5.65 3.173 41.454 26.602 98.79 1.36 107.258-47.144 1.13-6.471.97-12.916.926-19.855zM327.248 532.115c4.062-8.778 8.17-17.154 11.766-25.746 1.893-4.524 5.338-3.897 8.717-3.522 3.915.434 2.515 3.786 2.532 5.962.124 15.483.045 30.968.095 46.452.01 3.354.182 6.12-4.726 6.174-5.175.055-5.016-2.896-4.992-6.425.064-9.319.022-18.638.022-29.284-4.538 7.424-7.232 14.406-10.498 21.09-.86 1.763-1.476 3.772-3.91 4.119-3.14.447-5.375-.346-6.836-3.513-3.247-7.035-6.778-13.937-11.107-20.718 0 9.744-.201 19.494.087 29.23.14 4.705-1.963 5.661-6.02 5.395-2.833-.185-3.718-1.464-3.712-4.086.04-16.816.005-33.632.022-50.448.001-1.825-.137-3.985 2.553-3.975 2.988.01 6.4-1.292 8.234 2.71 3.814 8.319 7.788 16.565 11.683 24.848.908 1.932 1.476 4.064 3.278 5.475 1.778-.519 1.901-2.213 2.812-3.738zM130.725 516.324c5.302 8.1 10.401 15.9 15.5 23.699l1.059-.049c.112-1.995.312-3.99.321-5.986.039-8.333.06-16.667.002-25-.024-3.48-.336-6.54 4.922-6.436 4.859.096 4.778 2.83 4.767 6.21-.05 15.5.016 31-.088 46.499-.014 2.095 1.162 5.19-2.18 5.808-3.225.598-6.45.84-8.76-2.816-6.498-10.279-13.28-20.377-19.988-30.523-.87-1.316-1.366-3.053-3.931-3.665v15.482c0 5.5-.089 11.002.038 16.499.075 3.233-.346 5.361-4.48 5.37-4.04.007-5.158-1.6-5.127-5.365.13-15.998.033-31.998.106-47.997.009-2.003-.706-4.811 2.44-5.18 2.87-.335 5.987-1.039 8.023 2.314 2.247 3.7 4.77 7.231 7.376 11.136zM458.426 515.674c-3.778-4.539-8.402-5.41-13.323-3.708-4.773 1.651-6.406 5.617-7.016 10.525-.872 7.017-.81 13.929.226 20.891.948 6.368 5.821 10.034 12.507 9.255 5.785-.675 10.253-6.161 9.87-11.876-.153-2.304-1.156-3.25-3.392-3.35-2.63-.117-5.313.408-7.86-.46-1.706-7.133-1.084-7.962 5.952-8.052.833-.01 1.667-.02 2.5-.01 14.727.19 12.328-1.626 12.41 12.435.063 10.593-7.493 19.132-17.207 19.974-13.595 1.18-22.481-4.64-24.48-16.334a78.393 78.393 0 0 1 .153-27.327c1.676-9.236 11.243-16.063 21.138-15.424 11.387.736 18.917 7.453 19.936 17.785-5.98 2.703-8.178 1.915-11.414-4.324zM219.35 528.047c-.321 6.62.67 12.79-.893 18.887-2.546 9.927-10.469 14.925-23.152 14.391-8.731-.367-16.37-7.395-17.592-16.28-1.117-8.112-1.279-16.224-.173-24.375 1.535-11.32 9.94-18.83 20.95-18.475 12.246.393 20.348 8.306 20.824 20.364.066 1.663.026 3.33.036 5.488m-9.692 6.348c-.2-4.798.417-9.617-.75-14.393-1.466-6.009-5.269-9.013-11.439-8.693-5.516.285-9.773 4.084-10.031 9.8-.33 7.296-.312 14.627.004 21.924.234 5.42 4.4 9.206 9.675 9.634 5.93.482 9.945-2.305 11.583-7.946.894-3.077 1.058-6.207.958-10.326zM380.71 518.815c1.678-4.582 3.327-8.762 4.792-13.005.861-2.495 2.55-3.164 4.984-3.154 2.37.01 4.102.443 5.03 3.018 6.376 17.678 12.86 35.316 19.274 52.98.207.57.026 1.28.026 1.9-8.028 1.936-9.037 1.594-11.488-5.625-1.282-3.776-3.34-5.447-7.317-5.021-2.14.229-4.351.243-6.484-.02-6.661-.819-11.37.397-13.089 8.242-1.29 5.892-6.478 2.152-11.319 3.434 5.49-15.024 10.487-28.699 15.59-42.749m7.111 22.18h10.688l-7.765-22.922c-2.573 7.316-4.694 13.37-6.832 19.416-1.068 3.02.825 3.4 3.909 3.506zM521.854 552.61c3.872-.267 6.328.283 6.185 4.677-.142 4.353-2.936 4.05-5.848 4.04-8.99-.032-17.983-.121-26.971.018-3.456.053-4.656-1.24-4.63-4.685.123-16.482.131-32.967.004-49.449-.027-3.554 1.377-4.62 4.73-4.57a934.04 934.04 0 0 0 27.97-.008c3.468-.053 4.787 1.347 4.74 4.715-.046 3.391-1.852 4.13-4.82 4.07-6.157-.125-12.322.067-18.478-.08-3.138-.074-4.541.944-4.48 4.277.24 13.077-1.474 11.367 10.878 11.464 2.664.021 5.329.054 7.992.013 3.36-.051 5.238 1.042 5.17 4.916-.069 3.802-2.093 4.337-5.142 4.28-4.993-.094-9.99.05-14.983-.045-2.736-.052-3.74 1.05-3.92 3.817-.816 12.58-.89 12.576 11.634 12.561l9.969-.01zM452.388 218.725c-8.97.643-15.533-4.248-16.632-11.999-1.13-7.965 3.968-14.891 11.976-16.27 7.345-1.263 14.19 3.342 16.16 10.871 1.975 7.546-2.565 14.615-11.504 17.398zM266.72 513.036c.005-1.99.111-3.497-.005-4.985-.283-3.617.774-5.444 4.946-5.474 4.435-.032 4.73 2.29 4.714 5.656-.078 15.976-.1 31.952-.005 47.928.02 3.394-.71 5.204-4.662 5.228-4.094.024-5.066-1.719-5.03-5.423.132-14.144.046-28.29.041-42.93z"/></svg>